<svg xmlns="http://www.w3.org/2000/svg" width="48" height="48" viewBox="0 0 48 48">
  <defs>
    <linearGradient id="icon-music-list-a" x1="133.84%" x2="-33.843%" y1="83.537%" y2="16.463%">
      <stop offset="0%" stop-color="#4285F4"/>
      <stop offset="100%" stop-color="#AA56D0"/>
    </linearGradient>
  </defs>
  <g fill="url(#icon-music-list-a)" transform="translate(10 14)">
    <path d="M26.6 0L9.8 0C9.0272 0 8.4.616 8.4 1.375 8.4 2.134 9.0272 2.75 9.8 2.75L26.6 2.75C27.3728 2.75 28 2.134 28 1.375 28 .616 27.3728 0 26.6 0zM4.2 0L1.4 0C.6272 0 0 .616 0 1.375 0 2.134.6272 2.75 1.4 2.75L4.2 2.75C4.9728 2.75 5.6 2.134 5.6 1.375 5.6.616 4.9728 0 4.2 0zM26.6 8.25L9.8 8.25C9.0272 8.25 8.4 8.866 8.4 9.625 8.4 10.384 9.0272 11 9.8 11L26.6 11C27.3728 11 28 10.384 28 9.625 28 8.866 27.3728 8.25 26.6 8.25zM4.2 8.25L1.4 8.25C.6272 8.25 0 8.866 0 9.625 0 10.384.6272 11 1.4 11L4.2 11C4.9728 11 5.6 10.384 5.6 9.625 5.6 8.866 4.9728 8.25 4.2 8.25zM26.6 16.5L9.8 16.5C9.0272 16.5 8.4 17.116 8.4 17.875 8.4 18.634 9.0272 19.25 9.8 19.25L26.6 19.25C27.3728 19.25 28 18.634 28 17.875 28 17.116 27.3728 16.5 26.6 16.5zM4.2 16.5L1.4 16.5C.6272 16.5 0 17.116 0 17.875 0 18.634.6272 19.25 1.4 19.25L4.2 19.25C4.9728 19.25 5.6 18.634 5.6 17.875 5.6 17.116 4.9728 16.5 4.2 16.5z"/>
  </g>
</svg>
