<svg xmlns="http://www.w3.org/2000/svg" width="48" height="48" viewBox="0 0 48 48">
  <defs>
    <linearGradient id="icon-edit-a" x1="5.388%" x2="94.614%" y1="-3.532%" y2="103.536%">
      <stop offset="0%" stop-color="#4285F4"/>
      <stop offset="100%" stop-color="#AA56D0"/>
    </linearGradient>
  </defs>
  <g fill="url(#icon-edit-a)" transform="translate(4 10)">
    <path d="M.952380952 20.5333333C.426666667 20.5333333 0 20.9514667 0 21.4666667 0 21.9818667.426666667 22.4.952380952 22.4L11.6952381 22.4C12.2209524 22.4 12.647619 21.9818667 12.647619 21.4666667 12.647619 20.9514667 12.2228571 20.5333333 11.6952381 20.5333333L.952380952 20.5333333zM20.952381 4.66666667C20.952381 4.15146667 20.5257143 3.73333333 20 3.73333333L.952380952 3.73333333C.426666667 3.73333333 0 4.15146667 0 4.66666667 0 5.18186667.426666667 5.6.952380952 5.6L20 5.6C20.5257143 5.6 20.952381 5.18186667 20.952381 4.66666667zM14.967619 15.8666667C14.967619 15.3514667 14.5409524 14.9333333 14.0152381 14.9333333L.952380952 14.9333333C.426666667 14.9333333 0 15.3514667 0 15.8666667 0 16.3818667.426666667 16.8.952380952 16.8L14.0152381 16.8C14.5428571 16.8 14.967619 16.3818667 14.967619 15.8666667zM18.0647619 10.2666667C18.0647619 9.75146667 17.6380952 9.33333333 17.112381 9.33333333L.952380952 9.33333333C.426666667 9.33333333 0 9.75146667 0 10.2666667 0 10.7818667.426666667 11.2.952380952 11.2L17.112381 11.2C17.64 11.2 18.0647619 10.7818667 18.0647619 10.2666667zM34.9161905.841866667C33.8095238-.242666667 31.8761905-.242666667 30.7695238.841866667L17.4209524 13.9253333C17.3238095 14.0205333 17.2552381 14.1325333 17.207619 14.2501333 17.2057143 14.2538667 17.2019048 14.2576 17.2 14.2613333L14.8209524 20.58C14.8152381 20.5930667 14.8114286 20.6042667 14.807619 20.6173333L13.0933333 25.1701333C12.9657143 25.5117333 13.0514286 25.8962667 13.3142857 26.152 13.4952381 26.3312 13.7390476 26.4245333 13.9885714 26.4245333 14.0990476 26.4245333 14.2114286 26.4058667 14.3180952 26.3666667L18.9638095 24.6866667C18.9752381 24.6829333 18.9866667 24.6792 19 24.6736L25.4495238 22.3421333C25.4533333 22.3402667 25.4571429 22.3365333 25.4609524 22.3346667 25.5809524 22.2898667 25.6952381 22.2226667 25.792381 22.1256L39.1428571 9.044C40.2857143 7.924 40.2857143 6.10026667 39.1428571 4.98026667L34.9161905.841866667zM16.0780952 22.6389333L16.8990476 23.4434667 15.5961905 23.9138667 16.0780952 22.6389333zM18.8666667 22.7322667L16.8038095 20.7106667 18.4742857 16.2754667 23.3942857 21.0970667 18.8666667 22.7322667zM37.7942857 7.72426667L25.1180952 20.1469333 19.4419048 14.5842667 32.1180952 2.1616C32.5066667 1.78266667 33.1828571 1.78266667 33.5714286 2.1616L37.7961905 6.30186667C38.1961905 6.69386667 38.1961905 7.33226667 37.7942857 7.72426667z"/>
  </g>
</svg>
