<svg xmlns="http://www.w3.org/2000/svg" xmlns:xlink="http://www.w3.org/1999/xlink" width="750" height="266" viewBox="0 0 750 266">
  <defs>
    <path id="banner-b" d="M247.56,91.64 C247.56,93.068 246.404,94.224 244.976,94.224 L234.844,94.224 C234.028,94.224 233.348,94.7 233.008,95.38 L229.608,102.996 C229.336,103.608 229.676,104.356 230.356,104.56 L239.808,107.076 C241.304,107.484 242.324,108.844 242.324,110.408 C242.324,111.768 241.1,112.788 239.808,112.448 L226.48,108.844 C225.664,108.64 224.78,108.572 223.964,108.776 L199.62,113.4 C198.192,113.672 196.9,112.584 196.9,111.156 C196.9,109.592 198.056,108.232 199.62,107.892 L211.996,105.512 C212.336,105.444 212.336,104.968 211.996,104.9 L207.168,103.404 C204.584,102.656 203.156,99.868 204.108,97.352 L204.788,95.448 C204.992,94.836 204.516,94.224 203.904,94.224 L193.16,94.224 C191.732,94.224 190.576,93.068 190.576,91.64 C190.576,90.144 191.732,88.988 193.16,88.988 L206.148,88.988 C206.76,88.988 207.372,88.58 207.576,87.968 L207.984,86.88 C208.528,85.248 210.024,84.16 211.724,84.16 C213.152,84.16 214.104,85.52 213.628,86.88 L213.22,87.968 C213.016,88.512 213.424,88.988 213.968,88.988 L244.976,88.988 C246.404,88.988 247.56,90.144 247.56,91.64 Z M209.072,66.14 C209.82,66.14 210.5,65.528 210.5,64.78 L210.5,62.536 C210.5,61.788 209.82,61.108 209.072,61.108 L197.512,61.108 C196.016,61.108 194.928,60.02 194.928,58.524 C194.928,57.096 196.016,55.94 197.512,55.94 L240.488,55.94 C241.984,55.94 243.072,57.096 243.072,58.524 C243.072,60.02 241.984,61.108 240.488,61.108 L229.88,61.108 C229.132,61.108 228.52,61.788 228.52,62.536 L228.52,64.78 C228.52,65.528 229.132,66.14 229.88,66.14 L236.544,66.14 C239.264,66.14 241.372,68.316 241.372,71.036 L241.372,77.292 C241.372,80.08 239.264,82.188 236.544,82.188 L202.272,82.188 C199.552,82.188 197.444,80.08 197.444,77.292 L197.444,71.036 C197.444,68.316 199.552,66.14 202.272,66.14 L209.072,66.14 Z M204.108,71.104 C203.36,71.104 202.68,71.716 202.68,72.464 L202.68,75.796 C202.68,76.544 203.36,77.224 204.108,77.224 L209.072,77.224 C209.82,77.224 210.5,76.544 210.5,75.796 L210.5,72.464 C210.5,71.716 209.82,71.104 209.072,71.104 L204.108,71.104 Z M222.604,102.044 C223.352,102.248 224.1,101.84 224.44,101.16 L227.228,95.38 C227.5,94.836 227.092,94.224 226.48,94.224 L212.2,94.224 C211.384,94.224 210.636,94.7 210.432,95.448 L209.752,97.42 C209.48,98.1 209.888,98.78 210.568,98.984 L222.604,102.044 Z M221.924,66.14 C222.672,66.14 223.284,65.528 223.284,64.78 L223.284,62.536 C223.284,61.788 222.672,61.108 221.924,61.108 L216.96,61.108 C216.28,61.108 215.6,61.788 215.6,62.536 L215.6,64.78 C215.6,65.528 216.28,66.14 216.96,66.14 L221.924,66.14 Z M216.96,71.104 C216.28,71.104 215.6,71.716 215.6,72.464 L215.6,75.796 C215.6,76.544 216.28,77.224 216.96,77.224 L221.924,77.224 C222.672,77.224 223.284,76.544 223.284,75.796 L223.284,72.464 C223.284,71.716 222.672,71.104 221.924,71.104 L216.96,71.104 Z M236.136,72.464 C236.136,71.716 235.456,71.104 234.708,71.104 L229.88,71.104 C229.132,71.104 228.52,71.716 228.52,72.464 L228.52,75.796 C228.52,76.544 229.132,77.224 229.88,77.224 L234.708,77.224 C235.456,77.224 236.136,76.544 236.136,75.796 L236.136,72.464 Z M321.616,77.564 C323.112,77.564 323.996,79.264 323.18,80.488 L315.496,92.524 C315.02,93.272 314.952,94.156 315.156,94.904 L319.984,110.068 C320.46,111.496 319.372,112.992 317.808,112.992 C315.972,112.992 314.34,111.836 313.796,110.068 L311.008,101.296 C310.872,100.82 310.192,100.684 309.92,101.16 L305.5,107.96 C304.344,109.796 302.236,110.952 300.06,110.952 C298.564,110.952 297.612,109.252 298.496,107.96 L307.608,93.816 C308.084,93.136 308.152,92.252 307.948,91.436 L301.216,70.696 C300.944,69.948 300.264,69.404 299.448,69.404 L278.368,69.404 C277.62,69.404 277.076,70.016 277.076,70.764 L277.076,78.04 C277.076,78.788 277.62,79.332 278.368,79.332 L289.52,79.332 C292.172,79.332 294.28,81.644 294.076,84.296 L292.92,98.576 C292.784,100.208 291.424,101.5 289.724,101.5 C288.092,101.5 286.868,100.14 287.004,98.576 L287.956,86.54 C287.956,85.792 287.412,85.18 286.732,85.18 L277.824,85.18 C277.076,85.18 276.464,85.792 276.396,86.54 L274.356,109.932 C274.22,111.564 272.792,112.856 271.16,112.856 C269.596,112.856 268.372,111.496 268.508,109.932 L271.228,79.06 L271.228,68.52 C271.228,65.8 273.404,63.556 276.124,63.556 L298.7,63.556 C299.448,63.556 300.06,63.012 300.06,62.264 L300.06,57.98 C300.06,56.348 301.352,55.056 302.984,55.056 C304.616,55.056 305.976,56.348 305.976,57.98 L305.976,62.264 C305.976,63.012 306.588,63.556 307.268,63.556 L321.276,63.556 C322.908,63.556 324.2,64.848 324.2,66.48 C324.2,68.112 322.908,69.404 321.276,69.404 L308.288,69.404 C307.676,69.404 307.2,70.084 307.404,70.696 L312.028,85.18 C312.164,85.656 312.844,85.724 313.116,85.316 L316.244,80.488 C317.4,78.652 319.44,77.564 321.616,77.564 Z M319.78,58.728 C320.324,59.884 319.44,61.244 318.148,61.244 L317.196,61.244 C315.496,61.244 314,60.292 313.252,58.728 C312.708,57.504 313.592,56.144 314.884,56.144 L315.836,56.144 C317.536,56.144 319.1,57.164 319.78,58.728 Z M372.62,60.7 C374.184,60.7 375.476,61.992 375.476,63.624 C375.476,65.188 374.184,66.48 372.62,66.48 L348.548,66.48 C346.984,66.48 345.692,65.188 345.692,63.624 C345.692,61.992 346.984,60.7 348.548,60.7 L356.64,60.7 C357.184,60.7 357.592,60.292 357.592,59.748 L357.592,59.068 C357.592,57.436 358.952,56.144 360.516,56.144 C362.148,56.144 363.44,57.436 363.44,59.068 L363.44,59.748 C363.44,60.292 363.916,60.7 364.46,60.7 L372.62,60.7 Z M349.772,107.892 C348.208,107.892 347.052,106.532 347.324,104.968 L348.82,96.196 C349.092,94.496 350.588,93.272 352.288,93.272 C353.92,93.272 355.076,94.632 354.804,96.196 L353.308,104.968 C353.036,106.668 351.54,107.892 349.772,107.892 Z M367.044,70.016 C369.764,70.016 372.008,72.26 372.008,74.98 L372.008,82.052 C372.008,84.84 369.764,87.016 367.044,87.016 L364.8,87.016 C364.052,87.016 363.44,87.628 363.44,88.376 L363.44,109.864 C363.44,111.496 362.148,112.788 360.516,112.788 C358.952,112.788 357.592,111.496 357.592,109.864 L357.592,88.376 C357.592,87.628 357.048,87.016 356.3,87.016 L354.124,87.016 C351.404,87.016 349.16,84.84 349.16,82.052 L349.16,74.98 C349.16,72.26 351.404,70.016 354.124,70.016 L367.044,70.016 Z M365.48,81.848 C366.228,81.848 366.772,81.236 366.772,80.488 L366.772,76.68 C366.772,76 366.228,75.388 365.48,75.388 L355.688,75.388 C354.94,75.388 354.328,76 354.328,76.68 L354.328,80.488 C354.328,81.236 354.94,81.848 355.688,81.848 L365.48,81.848 Z M366.908,96.4 C366.636,94.904 367.792,93.476 369.356,93.476 C371.124,93.476 372.62,94.7 372.892,96.4 L373.708,100.684 C374.048,102.248 372.824,103.608 371.328,103.608 C369.56,103.608 368.064,102.384 367.724,100.684 L366.908,96.4 Z M403.696,71.512 C403.696,73.076 402.472,74.368 400.908,74.368 L391.32,74.368 C390.572,74.368 389.892,74.912 389.756,75.66 L389.484,77.02 C389.416,77.428 389.756,77.836 390.164,77.836 C391.864,77.836 393.292,79.196 393.292,80.964 L393.292,104.084 C393.292,104.832 393.836,105.376 394.584,105.376 L399.752,105.376 C401.248,105.376 402.472,106.6 402.472,108.164 C402.472,109.66 401.248,110.884 399.752,110.884 L392.816,110.884 C390.096,110.884 387.852,108.708 387.852,105.92 L387.784,87.152 C387.784,87.016 387.512,86.948 387.512,87.152 L382.888,109.048 C382.548,110.612 381.12,111.768 379.488,111.768 C377.992,111.768 376.972,110.476 377.244,109.048 L384.112,75.66 C384.248,74.98 383.772,74.368 383.092,74.368 L378.264,74.368 C376.768,74.368 375.476,73.076 375.476,71.512 C375.476,69.948 376.768,68.724 378.264,68.724 L384.044,68.724 C384.724,68.724 385.336,68.112 385.336,67.364 L385.336,59.204 C385.336,57.708 386.56,56.484 388.056,56.484 C389.62,56.484 390.844,57.708 390.844,59.204 L390.844,67.364 C390.844,68.112 391.388,68.724 392.136,68.724 L400.908,68.724 C402.472,68.724 403.696,69.948 403.696,71.512 Z M401.452,61.856 C402.064,63.216 401.044,64.78 399.548,64.78 C397.576,64.78 395.808,63.624 395.06,61.856 L394.448,60.496 C393.836,59.136 394.856,57.572 396.352,57.572 C398.324,57.572 400.092,58.728 400.84,60.496 L401.452,61.856 Z M439.332,57.436 C441.712,57.436 443.344,59.748 442.528,62.06 L438.108,74.164 C437.768,74.98 437.632,75.864 437.632,76.748 L437.632,78.788 C437.632,79.332 438.244,79.808 438.788,79.672 L440.012,79.264 C441.44,78.788 442.868,79.876 442.868,81.304 C442.868,83.208 441.712,84.772 440.012,85.316 L438.788,85.724 C438.108,85.928 437.632,86.608 437.632,87.288 L437.632,108.844 C437.632,111.224 435.728,113.06 433.348,113.06 L432.056,113.06 C430.424,113.06 429.2,111.836 429.2,110.136 L429.2,109.252 C429.2,108.096 430.016,107.28 431.172,107.28 C431.444,107.28 431.784,106.94 431.784,106.668 L431.784,89.26 C431.784,88.58 431.104,88.036 430.424,88.24 L427.432,89.192 C426.004,89.668 424.576,88.58 424.576,87.152 C424.576,85.316 425.8,83.752 427.432,83.208 L430.424,82.256 C431.24,81.984 431.784,81.236 431.784,80.488 L431.784,79.264 C431.784,76 432.328,72.736 433.484,69.676 L435.388,64.508 C435.592,63.896 435.184,63.216 434.436,63.216 L428.112,63.216 C426.48,63.216 425.256,61.924 425.256,60.36 C425.256,58.728 426.48,57.436 428.112,57.436 L439.332,57.436 Z M467.62,59.272 C467.62,59.816 468.164,60.36 468.776,60.36 L479.384,60.36 C480.88,60.36 482.104,61.584 482.104,63.08 C482.104,64.644 480.88,65.868 479.384,65.868 L466.532,65.868 C465.716,65.868 464.832,66.276 464.288,66.888 L457.624,75.456 C457.216,76.136 457.216,77.02 457.76,77.564 L460.684,80.488 C461.296,80.964 462.18,80.896 462.588,80.352 L466.872,75.116 C468.232,73.348 470.34,72.396 472.584,72.396 C473.944,72.396 474.692,73.96 473.808,74.98 L457.76,95.176 C456.4,96.944 454.292,97.964 452.048,97.964 C450.756,97.964 449.94,96.332 450.824,95.312 L457.556,86.812 C458.032,86.132 457.964,85.316 457.42,84.704 L453.136,80.42 C451.164,78.516 450.892,75.388 452.66,73.212 L457.352,67.024 C457.692,66.548 457.352,65.868 456.74,65.868 L450.008,65.868 C448.444,65.868 447.288,64.644 447.288,63.08 C447.288,61.584 448.444,60.36 450.008,60.36 L460.956,60.36 C461.568,60.36 462.044,59.816 462.044,59.272 L462.044,58.184 C462.044,56.62 463.268,55.396 464.832,55.396 C466.464,55.396 467.62,56.62 467.62,58.184 L467.62,59.272 Z M475.44,86.064 C476.8,86.064 477.616,87.696 476.732,88.716 L470.816,96.332 C470.34,97.012 470.34,97.828 470.816,98.508 L478.976,108.912 C479.86,109.932 479.044,111.564 477.684,111.564 C475.44,111.564 473.332,110.544 471.972,108.708 L467.416,102.996 C467.008,102.452 466.124,102.452 465.648,102.996 L461.092,108.844 C459.732,110.544 457.692,111.564 455.448,111.564 C454.088,111.564 453.272,110 454.156,108.912 L469.66,88.852 C471.156,87.152 473.196,86.064 475.44,86.064 Z M555.344,81.032 C556.908,81.032 558.2,82.324 558.2,83.888 C558.2,85.52 556.908,86.812 555.344,86.812 L534.876,86.812 C534.128,86.812 533.516,87.424 533.516,88.104 L533.516,108.368 C533.516,111.156 531.34,113.332 528.62,113.332 L524.268,113.332 C522.636,113.332 521.344,112.04 521.344,110.408 C521.344,108.776 522.636,107.484 524.268,107.484 L526.444,107.484 C527.192,107.484 527.736,106.872 527.736,106.192 L527.736,88.104 C527.736,87.424 527.192,86.812 526.444,86.812 L504.48,86.812 C502.916,86.812 501.624,85.52 501.624,83.888 C501.624,82.324 502.916,81.032 504.48,81.032 L526.444,81.032 C527.192,81.032 527.736,80.42 527.736,79.672 L527.736,71.648 C527.736,70.016 529.028,68.724 530.66,68.724 L531.748,68.724 C532.7,68.724 533.516,69.54 533.516,70.56 C533.516,70.628 533.72,70.696 533.788,70.56 L537.188,64.168 C537.528,63.624 537.12,63.012 536.508,63.012 L512.572,63.012 C510.94,63.012 509.648,61.72 509.648,60.156 C509.648,58.524 510.94,57.232 512.572,57.232 L542.696,57.232 C544.94,57.232 546.3,59.612 545.28,61.584 L535.284,79.876 C535.012,80.352 535.352,81.032 535.964,81.032 L555.344,81.032 Z"/>
    <filter id="banner-a" width="101.9%" height="112%" x="-1%" y="-4.3%" filterUnits="objectBoundingBox">
      <feOffset dy="1" in="SourceAlpha" result="shadowOffsetOuter1"/>
      <feGaussianBlur in="shadowOffsetOuter1" result="shadowBlurOuter1" stdDeviation="1"/>
      <feColorMatrix in="shadowBlurOuter1" values="0 0 0 0 0   0 0 0 0 0   0 0 0 0 0  0 0 0 0.1 0"/>
    </filter>
    <path id="banner-d" d="M227.976,203.444 C227.976,204.192 228.52,204.804 229.268,204.804 L242.732,204.804 C244.364,204.804 245.656,206.096 245.656,207.728 C245.656,209.36 244.364,210.72 242.732,210.72 L226.956,210.72 C224.236,210.72 221.992,208.476 221.992,205.756 L221.992,185.696 C221.992,185.016 221.448,184.404 220.7,184.404 L214.376,184.404 C213.56,184.404 212.88,184.948 212.676,185.696 L206.216,207.66 C205.672,209.428 204.108,210.652 202.272,210.652 C200.708,210.652 199.62,209.156 200.028,207.66 L206.556,185.696 C206.692,185.016 206.216,184.404 205.604,184.404 L195.744,184.404 C194.112,184.404 192.82,183.112 192.82,181.48 C192.82,179.848 194.112,178.556 195.744,178.556 L214.716,178.556 C215.396,178.556 216.008,177.944 216.008,177.264 L216.008,169.24 C216.008,168.56 215.396,167.948 214.716,167.948 L203.768,167.948 C203.224,167.948 202.68,168.288 202.476,168.832 L202.34,169.308 C201.728,171.076 200.028,172.232 198.124,172.232 C196.628,172.232 195.54,170.736 196.084,169.308 L199.62,159.04 C200.232,157.272 201.932,156.116 203.768,156.116 C205.332,156.116 206.352,157.612 205.876,159.04 L205.264,160.876 C205.06,161.488 205.468,162.1 206.148,162.1 L214.716,162.1 C215.396,162.1 216.008,161.488 216.008,160.808 L216.008,157.748 C216.008,156.116 217.368,154.756 219,154.756 C220.632,154.756 221.924,156.116 221.924,157.748 L221.924,160.808 C221.924,161.488 222.536,162.1 223.284,162.1 L235.66,162.1 C237.292,162.1 238.652,163.392 238.652,165.024 C238.652,166.656 237.292,167.948 235.66,167.948 L223.284,167.948 C222.536,167.948 221.924,168.56 221.924,169.24 L221.924,177.264 C221.924,177.944 222.536,178.556 223.284,178.556 L242.188,178.556 C243.82,178.556 245.112,179.848 245.112,181.48 C245.112,183.112 243.82,184.404 242.188,184.404 L229.268,184.404 C228.52,184.404 227.976,185.016 227.976,185.696 L227.976,203.444 Z M280.408,152.444 C281.904,152.444 282.924,153.872 282.448,155.3 L279.66,162.78 C279.32,163.596 279.184,164.412 279.184,165.296 L279.184,209.428 C279.184,210.992 277.892,212.216 276.396,212.216 C274.832,212.216 273.54,210.992 273.54,209.428 L273.54,179.508 C273.54,179.44 273.472,179.372 273.404,179.44 C273.132,180.12 272.52,180.528 271.772,180.528 L269.936,180.528 C268.508,180.528 267.488,179.1 268.032,177.74 L276.328,155.3 C277.008,153.532 278.64,152.444 280.408,152.444 Z M284.76,203.376 C283.196,203.376 281.904,202.084 281.904,200.52 L281.904,166.52 C281.904,164.956 283.196,163.664 284.76,163.664 C286.324,163.664 287.548,164.956 287.548,166.52 L287.548,200.52 C287.548,202.084 286.324,203.376 284.76,203.376 Z M305.5,175.768 C302.78,177.468 299.652,178.352 296.388,178.352 L296.116,178.352 C294.688,178.352 294.144,176.516 295.368,175.7 L304.004,170.26 C304.548,169.92 304.548,169.172 304.004,168.832 L298.428,165.228 C298.088,165.024 297.68,165.16 297.544,165.5 C296.932,167.064 295.436,168.084 293.736,168.084 L293.464,168.084 C292.036,168.084 291.016,166.588 291.56,165.228 L295.504,155.368 C296.116,153.668 297.816,152.58 299.652,152.58 C301.08,152.58 302.1,154.008 301.556,155.436 L301.488,155.64 C301.352,155.98 301.624,156.456 302.032,156.456 L322.228,156.456 C323.724,156.456 325.016,157.68 325.016,159.176 C325.016,160.74 323.724,161.964 322.228,161.964 L321.072,161.964 C320.392,161.964 319.78,162.304 319.372,162.848 L315.36,168.22 C314.952,168.764 315.088,169.58 315.7,169.988 L324.608,175.7 C325.832,176.516 325.288,178.352 323.86,178.352 L323.792,178.352 C320.528,178.352 317.4,177.468 314.68,175.7 L311.28,173.524 C310.6,173.116 309.716,173.116 309.036,173.524 L305.5,175.768 Z M297.748,209.904 C296.388,210.448 294.892,209.428 294.892,207.932 C294.892,206.096 296.048,204.464 297.748,203.852 L319.508,195.828 C320.868,195.352 322.296,196.372 322.296,197.8 C322.296,199.636 321.208,201.268 319.508,201.88 L297.748,209.904 Z M299.516,199.16 C298.088,199.704 296.66,198.684 296.66,197.256 C296.66,195.42 297.816,193.788 299.448,193.176 L315.7,187.124 C317.06,186.648 318.556,187.668 318.556,189.096 C318.556,190.932 317.4,192.564 315.7,193.176 L299.516,199.16 Z M298.02,186.58 C298.02,184.812 299.176,183.248 300.808,182.704 L313.456,178.42 C314.816,177.944 316.244,178.964 316.244,180.392 C316.244,182.16 315.156,183.724 313.456,184.268 L300.808,188.62 C299.448,189.096 298.02,188.076 298.02,186.58 Z M308.968,165.568 C309.58,165.976 310.464,165.84 310.872,165.228 L312.504,163.052 C312.844,162.576 312.504,161.964 311.96,161.964 L304.752,161.964 C304.344,161.964 304.208,162.508 304.548,162.712 L308.968,165.568 Z M348.276,164.956 C349.704,164.956 350.86,166.112 350.86,167.54 L350.86,183.52 C350.86,184.948 349.704,186.104 348.276,186.104 C346.848,186.104 345.692,184.948 345.692,183.52 L345.692,167.54 C345.692,166.112 346.848,164.956 348.276,164.956 Z M364.12,165.5 C365.48,165.5 366.364,166.996 365.684,168.152 L359.768,178.488 C359.292,179.236 359.088,180.12 359.088,180.936 L359.088,187.804 C359.088,188.688 359.292,189.572 359.564,190.32 L363.644,200.18 C364.188,201.472 363.236,202.9 361.808,202.9 C360.04,202.9 358.408,201.812 357.796,200.18 L357.116,198.412 C356.912,198.004 356.368,198.004 356.232,198.412 L352.968,207.592 C352.356,209.224 350.792,210.312 349.092,210.312 C347.664,210.312 346.644,208.952 347.188,207.592 L353.24,190.592 C353.512,189.776 353.648,188.892 353.648,188.008 L353.648,155.98 C353.648,154.484 354.872,153.26 356.368,153.26 C357.864,153.26 359.088,154.484 359.088,155.98 L359.088,167.948 C359.088,168.152 359.36,168.22 359.496,168.084 C360.448,166.452 362.148,165.5 363.984,165.5 L364.12,165.5 Z M403.832,159.584 C403.832,161.08 402.676,162.304 401.18,162.304 L389.62,162.304 C388.872,162.304 388.26,162.916 388.26,163.596 L388.26,166.18 C388.26,166.86 388.872,167.472 389.62,167.472 L395.264,167.472 C397.984,167.472 400.228,169.716 400.228,172.436 L400.228,186.988 C400.228,189.708 397.984,191.952 395.264,191.952 L392.068,191.952 C391.524,191.952 391.184,192.564 391.524,192.972 L400.636,204.736 C401.384,205.756 400.636,207.252 399.344,207.252 C397.304,207.252 395.332,206.3 394.108,204.668 L389.076,198.072 C388.804,197.8 388.26,197.936 388.26,198.412 L388.26,208.476 C388.26,209.972 387.104,211.196 385.608,211.196 C384.112,211.196 382.888,209.972 382.888,208.476 L382.888,198.752 C382.888,198.344 382.344,198.14 382.072,198.48 L377.448,204.736 C376.224,206.368 374.388,207.252 372.416,207.252 C371.056,207.252 370.308,205.824 371.124,204.736 L379.76,193.04 C380.032,192.564 379.76,191.952 379.216,191.952 L375.816,191.952 C373.096,191.952 370.852,189.708 370.852,186.988 L370.852,172.436 C370.852,169.716 373.096,167.472 375.816,167.472 L381.528,167.472 C382.276,167.472 382.888,166.86 382.888,166.18 L382.888,163.596 C382.888,162.916 382.276,162.304 381.528,162.304 L370.036,162.304 C368.54,162.304 367.316,161.08 367.316,159.584 C367.316,158.088 368.54,156.864 370.036,156.864 L382.14,156.864 C382.548,156.864 382.888,156.524 382.888,156.116 L382.888,155.98 C382.888,154.484 384.112,153.26 385.608,153.26 C387.104,153.26 388.26,154.484 388.26,155.98 L388.26,156.116 C388.26,156.524 388.668,156.864 389.076,156.864 L401.18,156.864 C402.676,156.864 403.832,158.088 403.832,159.584 Z M382.888,173.728 C382.888,172.98 382.276,172.368 381.528,172.368 L377.176,172.368 C376.428,172.368 375.816,172.98 375.816,173.728 L375.816,175.836 C375.816,176.516 376.428,177.128 377.176,177.128 L381.528,177.128 C382.276,177.128 382.888,176.516 382.888,175.836 L382.888,173.728 Z M377.176,182.228 C376.428,182.228 375.816,182.84 375.816,183.52 L375.816,185.492 C375.816,186.24 376.428,186.852 377.176,186.852 L381.528,186.852 C382.276,186.852 382.888,186.24 382.888,185.492 L382.888,183.52 C382.888,182.84 382.276,182.228 381.528,182.228 L377.176,182.228 Z M395.332,173.728 C395.332,172.98 394.72,172.368 394.04,172.368 L389.62,172.368 C388.872,172.368 388.26,172.98 388.26,173.728 L388.26,175.836 C388.26,176.516 388.872,177.128 389.62,177.128 L394.04,177.128 C394.72,177.128 395.332,176.516 395.332,175.836 L395.332,173.728 Z M388.26,185.492 C388.26,186.24 388.872,186.852 389.62,186.852 L394.04,186.852 C394.72,186.852 395.332,186.24 395.332,185.492 L395.332,183.52 C395.332,182.84 394.72,182.228 394.04,182.228 L389.62,182.228 C388.872,182.228 388.26,182.84 388.26,183.52 L388.26,185.492 Z M449.872,161.148 C449.6,161.692 450.008,162.304 450.62,162.304 L469.932,162.304 C472.652,162.304 474.896,164.548 474.896,167.268 L474.896,202.968 C474.896,205.688 472.652,207.932 469.932,207.932 L436.068,207.932 C433.348,207.932 431.104,205.688 431.104,202.968 L431.104,167.268 C431.104,164.548 433.348,162.304 436.068,162.304 L441.984,162.304 C442.8,162.304 443.548,161.896 443.888,161.148 L446.132,156.728 C446.948,155.164 448.58,154.076 450.416,154.076 C451.776,154.076 452.66,155.504 452.048,156.728 L449.872,161.148 Z M469.252,169.308 C469.252,168.56 468.64,167.948 467.892,167.948 L438.176,167.948 C437.428,167.948 436.816,168.56 436.816,169.308 L436.816,174.476 C436.816,175.224 437.428,175.836 438.176,175.836 L467.892,175.836 C468.64,175.836 469.252,175.224 469.252,174.476 L469.252,169.308 Z M469.252,182.568 C469.252,181.82 468.64,181.208 467.892,181.208 L438.176,181.208 C437.428,181.208 436.816,181.82 436.816,182.568 L436.816,187.668 C436.816,188.416 437.428,189.028 438.176,189.028 L467.892,189.028 C468.64,189.028 469.252,188.416 469.252,187.668 L469.252,182.568 Z M436.816,201.2 C436.816,201.88 437.428,202.492 438.176,202.492 L467.892,202.492 C468.64,202.492 469.252,201.88 469.252,201.2 L469.252,195.828 C469.252,195.08 468.64,194.468 467.892,194.468 L438.176,194.468 C437.428,194.468 436.816,195.08 436.816,195.828 L436.816,201.2 Z M513.32,201.744 C513.32,202.492 514.34,203.308 515.088,203.308 L551.808,203.308 C553.372,203.308 554.528,204.396 554.528,206.028 C554.528,207.592 553.372,208.748 551.808,208.748 L512.64,208.748 C509.852,208.748 507.88,206.708 507.88,203.988 L507.88,170.872 C507.88,169.24 508.968,168.152 510.6,168.152 C512.232,168.152 513.32,169.24 513.32,170.872 L513.32,175.564 C513.32,176.244 514.34,177.06 515.088,177.06 L545.212,177.06 C545.892,177.06 546.708,176.244 546.708,175.564 L546.708,163.46 C546.708,162.712 545.892,161.896 545.212,161.896 L510.26,161.896 C508.628,161.896 507.54,160.808 507.54,159.176 C507.54,157.612 508.628,156.456 510.26,156.456 L547.388,156.456 C550.312,156.456 552.352,158.496 552.352,161.216 L552.352,177.808 C552.352,180.528 550.312,182.5 547.388,182.5 L515.088,182.5 C514.34,182.5 513.32,183.316 513.32,184.064 L513.32,201.744 Z"/>
    <filter id="banner-c" width="101.9%" height="111.7%" x="-1%" y="-4.2%" filterUnits="objectBoundingBox">
      <feOffset dy="1" in="SourceAlpha" result="shadowOffsetOuter1"/>
      <feGaussianBlur in="shadowOffsetOuter1" result="shadowBlurOuter1" stdDeviation="1"/>
      <feColorMatrix in="shadowBlurOuter1" values="0 0 0 0 0   0 0 0 0 0   0 0 0 0 0  0 0 0 0.1 0"/>
    </filter>
  </defs>
  <g fill="none" fill-rule="evenodd">
    <rect width="750" height="266" fill="#FFF"/>
    <use fill="#000" filter="url(#banner-a)" xlink:href="#banner-b"/>
    <use fill="#344A5E" xlink:href="#banner-b"/>
    <g>
      <use fill="#000" filter="url(#banner-c)" xlink:href="#banner-d"/>
      <use fill="#344A5E" xlink:href="#banner-d"/>
    </g>
  </g>
</svg>
