<svg xmlns="http://www.w3.org/2000/svg" width="60" height="60" viewBox="0 0 60 60">
  <g fill="none" transform="translate(11 11)">
    <path fill="#F3705A" d="M35.3259259,27.7259259 L25.6148148,21.2518519 L21.9555556,24.9111111 L28.4296296,34.6222222 C30.1185185,37.2962963 33.9185185,37.5777778 36.1703704,35.3259259 C38.2814815,33.2148148 37.8592593,29.4148148 35.3259259,27.7259259 Z"/>
    <circle cx="14.778" cy="14.215" r="12.667"/>
    <path fill="#415A6B" d="M24.7703704,24.2074074 C19.2814815,29.6962963 10.2740741,29.6962963 4.78518519,24.2074074 C-0.703703704,18.7185185 -0.703703704,9.71111111 4.78518519,4.22222222 C10.2740741,-1.26666667 19.2814815,-1.26666667 24.7703704,4.22222222 C30.2592593,9.71111111 30.2592593,18.7185185 24.7703704,24.2074074 Z M6.75555556,6.19259259 C2.39259259,10.5555556 2.39259259,17.7333333 6.75555556,22.0962963 C11.1185185,26.4592593 18.2962963,26.4592593 22.6592593,22.0962963 C27.0222222,17.7333333 27.0222222,10.5555556 22.6592593,6.19259259 C18.2962963,1.82962963 11.2592593,1.82962963 6.75555556,6.19259259 Z"/>
  </g>
</svg>
