<svg xmlns="http://www.w3.org/2000/svg" width="60" height="60" viewBox="0 0 60 60">
  <path fill="#5B5B5B" d="M38.3333333,21.1447619 L38.3333333,15.2380952 C38.3333333,11.1752381 36.73675,7.35047619 33.8349167,4.47047619 C30.9388333,1.58666667 27.0901667,0 23,0 C14.5455833,0 7.66666667,6.83619048 7.66666667,15.2380952 L7.66666667,21.1447619 C3.29858333,22.0304762 0,25.8780952 0,30.4761905 C0,35.272381 3.5995,39.2133333 8.24741667,39.8666667 C8.36433333,39.9161905 8.49083333,39.9428571 8.625,39.9428571 C8.671,39.9428571 8.71125,39.9238095 8.75725,39.9161905 C9.03325,39.9409524 9.29966667,40 9.58333333,40 L12.4583333,40 C12.9873333,40 13.4166667,39.5733333 13.4166667,39.047619 L13.4166667,21.9047619 C13.4166667,21.3790476 12.9873333,20.952381 12.4583333,20.952381 L9.58333333,20.952381 L9.58333333,15.2380952 C9.58333333,7.88571429 15.6035833,1.9047619 23,1.9047619 C26.5765,1.9047619 29.9440833,3.29333333 32.4798333,5.81714286 C35.0194167,8.33714286 36.4166667,11.6838095 36.4166667,15.2380952 L36.4166667,20.952381 L33.5416667,20.952381 C33.0126667,20.952381 32.5833333,21.3790476 32.5833333,21.9047619 L32.5833333,39.047619 C32.5833333,39.5733333 33.0126667,40 33.5416667,40 L36.4166667,40 C36.7003333,40 36.96675,39.9409524 37.24275,39.9161905 C37.2868333,39.9219048 37.3270833,39.9428571 37.375,39.9428571 C37.5091667,39.9428571 37.6356667,39.9142857 37.7525833,39.8647619 C42.4005,39.2133333 46,35.272381 46,30.4761905 C46,25.8780952 42.7014167,22.0304762 38.3333333,21.1447619 Z M1.91666667,30.4761905 C1.91666667,26.9371429 4.36808333,23.9790476 7.66666667,23.127619 L7.66666667,37.8247619 C4.36808333,36.9733333 1.91666667,34.0152381 1.91666667,30.4761905 Z M11.5,22.8571429 L11.5,38.0952381 L9.58333333,38.0952381 L9.58333333,22.8571429 L11.5,22.8571429 Z M34.5,38.0952381 L34.5,22.8571429 L36.4166667,22.8571429 L36.4166667,38.0952381 L34.5,38.0952381 Z M38.3333333,37.8247619 L38.3333333,23.127619 C41.6319167,23.9790476 44.0833333,26.9371429 44.0833333,30.4761905 C44.0833333,34.0152381 41.6319167,36.9733333 38.3333333,37.8247619 Z" transform="translate(7 10)"/>
</svg>
