<svg xmlns="http://www.w3.org/2000/svg" width="48" height="48" viewBox="0 0 48 48">
  <defs>
    <linearGradient id="icon-music-play-next-mini-a" x1="5.388%" x2="94.614%" y1="-3.532%" y2="103.536%">
      <stop offset="0%" stop-color="#4285F4"/>
      <stop offset="100%" stop-color="#AA56D0"/>
    </linearGradient>
  </defs>
  <path fill="url(#icon-music-play-next-mini-a)" d="M35.9166667,13.0008541 L29.4166667,13.0008541 C28.8186667,13.0008541 28.3333333,13.493635 28.3333333,14.1008114 L28.3333333,22.1195001 L12.6141667,13.1416486 C12.2783333,12.9502561 11.8688333,12.952456 11.5373333,13.1504483 C11.2036667,13.3484406 11,13.7092266 11,14.1008114 L11,33.9000427 C11,34.2916275 11.2036667,34.6524135 11.5373333,34.8504058 C11.7063333,34.9516019 11.8948333,35 12.0833333,35 C12.2653333,35 12.4495,34.9538018 12.6141667,34.8570056 L28.3333333,25.881354 L28.3333333,33.9000427 C28.3333333,34.5072191 28.8186667,35 29.4166667,35 L35.9166667,35 C36.5146667,35 37,34.5072191 37,33.9000427 L37,14.1008114 C37,13.493635 36.5146667,13.0008541 35.9166667,13.0008541 Z M13.1666667,32.0213156 L13.1666667,15.9795385 L27.2066667,24.000427 L13.1666667,32.0213156 Z M34.8333333,32.8000854 L30.5,32.8000854 L30.5,15.2007687 L34.8333333,15.2007687 L34.8333333,32.8000854 Z"/>
</svg>
