<svg xmlns="http://www.w3.org/2000/svg" width="60" height="60" viewBox="0 0 60 60">
  <defs>
    <linearGradient id="icon-qa-active-a" x1="6.168%" x2="89.666%" y1="15.823%" y2="99.321%">
      <stop offset="0%" stop-color="#4285F4"/>
      <stop offset="100%" stop-color="#AA56D0"/>
    </linearGradient>
    <linearGradient id="icon-qa-active-b" x1="23.272%" x2="76.727%" y1="-110.37%" y2="210.37%">
      <stop offset="0%" stop-color="#369CDC"/>
      <stop offset="100%" stop-color="#AA56D0"/>
    </linearGradient>
    <linearGradient id="icon-qa-active-c" x1="23.272%" x2="76.727%" y1="-110.37%" y2="210.36%">
      <stop offset="0%" stop-color="#369CDC"/>
      <stop offset="100%" stop-color="#AA56D0"/>
    </linearGradient>
  </defs>
  <g fill="none" transform="translate(7 7)">
    <path fill="url(#icon-qa-active-a)" d="M34.3945833,15.47325 C33.4956667,6.73516667 26.128,0 17.25,0 C7.73758333,0 0,7.7395 0,17.25 C0,23.0153333 2.82325,28.30725 7.58233333,31.5195833 C7.32166667,33.3845 6.1295,35.0098333 4.3815,35.8378333 C4.048,35.995 3.83333333,36.3323333 3.83333333,36.70225 C3.83333333,37.0721667 4.04416667,37.4095 4.37766667,37.5685833 C5.43758333,38.0765 6.54541667,38.3333333 7.66666667,38.3333333 C10.5320833,38.3333333 13.11,36.7635833 14.4286667,34.2738333 C16.33,34.5824167 18.3386667,34.5575 20.3684167,34.1895 C22.3828333,38.74925 26.6895833,41.8025 31.6805833,42.1206667 C33.0395,44.528 35.5388333,46 38.3333333,46 C39.4565,46 40.5624167,45.7431667 41.6223333,45.23525 C41.9558333,45.0761667 42.1666667,44.7388333 42.1666667,44.3689167 C42.1666667,44.0009167 41.9539167,43.6635833 41.6223333,43.5045 C40.3458333,42.895 39.3568333,41.8695833 38.824,40.6275833 C43.21125,38.3295 46,33.75825 46,28.75 C46,22.0416667 40.9668333,16.37025 34.3945833,15.47325 Z M19.6726667,32.3629167 C17.7406667,32.6695833 15.84125,32.6293333 14.076,32.2575 C13.6179167,32.1616667 13.1636667,32.4050833 12.98925,32.8344167 C12.0213333,35.213 9.55075,36.6888333 7.01116667,36.3764167 C8.49275,35.0596667 9.42041667,33.1966667 9.53925,31.1324167 C9.54308333,31.0979167 9.545,31.0653333 9.545,31.0308333 L9.545,31.0289167 L9.545,31.027 C9.545,31.027 9.545,31.027 9.545,31.027 C9.545,31.027 9.545,31.027 9.545,31.0250833 L9.545,31.0231667 C9.545,31.0231667 9.545,31.0231667 9.545,31.0231667 C9.545,31.0231667 9.545,31.0231667 9.545,31.02125 L9.545,31.02125 C9.545,31.02125 9.545,31.0193333 9.545,31.0193333 C9.545,31.0193333 9.545,31.0193333 9.545,31.0193333 L9.545,31.0174167 C9.545,31.0174167 9.545,31.0174167 9.545,31.0174167 C9.545,31.0174167 9.545,31.0174167 9.545,31.0155 L9.545,31.0155 C9.545,31.0155 9.545,31.0135833 9.545,31.0135833 C9.545,31.0135833 9.545,31.0135833 9.545,31.0135833 L9.545,31.0116667 C9.545,31.0116667 9.545,31.00975 9.545,31.0078333 L9.545,31.0078333 L9.545,31.0059167 L9.545,31.004 C9.545,31.004 9.545,31.0020833 9.545,31.0001667 C9.54116667,30.9196667 9.52775,30.843 9.50666667,30.76825 C9.4415,30.5478333 9.29775,30.35425 9.0965,30.22775 C4.6,27.3968333 1.91666667,22.5495833 1.91666667,17.25 C1.91666667,8.79558333 8.79558333,1.91666667 17.25,1.91666667 C25.02975,1.91666667 31.5080833,7.73566667 32.4568333,15.3390833 C25.1179167,15.4080833 19.1666667,21.3938333 19.1666667,28.75 C19.1666667,29.9766667 19.3391667,31.188 19.6726667,32.3629167 Z M37.25425,39.2590833 C36.8210833,39.45075 36.593,39.9260833 36.7156667,40.3803333 C37.0951667,41.8044167 37.8905833,43.0713333 38.9888333,44.0430833 C36.524,44.3459167 34.19525,43.0176667 33.1410833,40.7809167 C32.9858333,40.45125 32.6580833,40.2385 32.2958333,40.2308333 C27.5808333,40.1273333 23.4715,37.2044167 21.8250833,32.7788333 C21.3325,31.48125 21.0833333,30.1261667 21.0833333,28.75 C21.0833333,22.40775 26.2410833,17.25 32.5833333,17.25 C32.8689167,17.25 33.1755833,17.26725 33.4515833,17.2864167 C39.4124167,17.7291667 44.0833333,22.76425 44.0833333,28.75 C44.0833333,33.2963333 41.4038333,37.421 37.25425,39.2590833 Z"/>
    <path fill="url(#icon-qa-active-b)" d="M38,25 L28,25 C27.448,25 27,25.448 27,26 C27,26.552 27.448,27 28,27 L38,27 C38.552,27 39,26.552 39,26 C39,25.448 38.552,25 38,25 Z"/>
    <path fill="url(#icon-qa-active-c)" d="M38,31 L28,31 C27.448,31 27,31.448 27,32 C27,32.552 27.448,33 28,33 L38,33 C38.552,33 39,32.552 39,32 C39,31.448 38.552,31 38,31 Z"/>
  </g>
</svg>
