<svg xmlns="http://www.w3.org/2000/svg" width="60" height="60" viewBox="0 0 60 60">
  <defs>
    <linearGradient id="icon-user-active-a" x1="14.665%" x2="85.345%" y1="14.657%" y2="85.338%">
      <stop offset="0%" stop-color="#4285F4"/>
      <stop offset="100%" stop-color="#AA56D0"/>
    </linearGradient>
  </defs>
  <path fill="url(#icon-user-active-a)" d="M23,0 C10.3174167,0 0,10.3174167 0,23 C0,28.7059167 2.10833333,34.1741667 5.93783333,38.4004167 L5.93783333,38.4023333 C5.93783333,38.4023333 5.93975,38.40425 5.93975,38.40425 L5.93975,38.40425 L5.93975,38.40425 C10.2944167,43.2304167 16.514,46 23,46 C29.54925,46 35.8090833,43.18825 40.17525,38.2854167 C40.17525,38.2835 40.1771667,38.2835 40.1790833,38.2835 C43.9338333,34.0725833 46,28.6445833 46,23 C46,10.3174167 35.6825833,0 23,0 Z M23,44.0833333 C17.2231667,44.0833333 11.6820833,41.6875 7.70883333,37.4938333 L9.13866667,31.9661667 C9.55075,30.1031667 11.3888333,28.75 13.5125,28.75 L18.4,28.75 C19.8815833,28.75 21.0833333,27.5463333 21.0833333,25.9631667 C21.0833333,25.1064167 20.6559167,24.2995 19.9160833,23.7513333 C16.4469167,21.17725 16.1766667,16.1594167 16.1766667,14.6816667 C16.1766667,9.96091667 18.3846667,7.66666667 22.9233333,7.66666667 C27.5386667,7.66666667 29.8808333,10.0260833 29.8808333,14.6816667 C29.8808333,17.7080833 28.88225,21.6775 26.0858333,23.7494167 C25.3440833,24.2995 24.9166667,25.1083333 24.9166667,26.0666667 C24.9166667,27.5463333 26.1203333,28.75 27.6,28.75 L32.84975,28.75 C35.006,28.75 36.80575,30.0725 37.2235833,31.9661667 L38.4195833,37.3654167 C34.4348333,41.6415 28.8439167,44.0833333 23,44.0833333 Z M39.9701667,35.5005 L39.0961667,31.55025 C38.4809167,28.773 35.9125833,26.8333333 32.8516667,26.8333333 L27.6,26.8333333 C27.1764167,26.8333333 26.8333333,26.4883333 26.8333333,25.9650833 C26.8333333,25.6181667 27.1093333,25.3785833 27.22625,25.2904167 C31.4678333,22.149 31.7975,16.376 31.7975,14.6816667 C31.7975,9.0045 28.5621667,5.75 22.9233333,5.75 C17.3381667,5.75 14.26,8.92208333 14.26,14.6816667 C14.26,16.3855833 14.5858333,22.1815833 18.77375,25.2904167 C18.8906667,25.3785833 19.1666667,25.6181667 19.1666667,26.0666667 C19.1666667,26.4883333 18.8216667,26.8333333 18.4,26.8333333 L13.5125,26.8333333 C10.4496667,26.8333333 7.88133333,28.773 7.27566667,31.5176667 L6.19275,35.6998333 C3.427,32.0581667 1.91666667,27.6153333 1.91666667,23 C1.91666667,11.3754167 11.3754167,1.91666667 23,1.91666667 C34.6245833,1.91666667 44.0833333,11.3754167 44.0833333,23 C44.0833333,27.52525 42.6343333,31.89525 39.9701667,35.5005 Z" transform="translate(7 7)"/>
</svg>
