<svg xmlns="http://www.w3.org/2000/svg" width="48" height="48" viewBox="0 0 48 48">
  <defs>
    <linearGradient id="icon-music-play-a" x1="14.627%" x2="85.373%" y1="14.694%" y2="85.306%">
      <stop offset="0%" stop-color="#4285F4"/>
      <stop offset="100%" stop-color="#AA56D0"/>
    </linearGradient>
    <linearGradient id="icon-music-play-b" x1="-17.287%" x2="62.285%" y1="16.845%" y2="83.155%">
      <stop offset="0%" stop-color="#4285F4"/>
      <stop offset="100%" stop-color="#AA56D0"/>
    </linearGradient>
  </defs>
  <g fill="none">
    <path fill="url(#icon-music-play-a)" d="M24,0.121166667 C10.7672727,0.121166667 0,10.8331667 0,24 C0,37.1668333 10.7672727,47.8788333 24,47.8788333 C37.2327273,47.8788333 48,37.1668333 48,24 C48,10.8331667 37.2327273,0.121166667 24,0.121166667 Z M24,45.7121667 C11.9694545,45.7121667 2.18181818,35.9708333 2.18181818,24 C2.18181818,12.0291667 11.9694545,2.28783333 24,2.28783333 C36.0305455,2.28783333 45.8181818,12.0291667 45.8181818,24 C45.8181818,35.9708333 36.0305455,45.7121667 24,45.7121667 Z"/>
    <path fill="url(#icon-music-play-b)" d="M16.9330909,11.1581667 C16.5992727,10.9545 16.176,10.948 15.8312727,11.1365 C15.4865455,11.3293333 15.2727273,11.6911667 15.2727273,12.0833333 L15.2727273,35.9166667 C15.2727273,36.3088333 15.4865455,36.6706667 15.8290909,36.8635 C15.9970909,36.9545 16.1803636,37 16.3636364,37 C16.56,37 16.7585455,36.948 16.9330909,36.8418333 L36.5694545,24.9251667 C36.8923636,24.728 37.0909091,24.377 37.0909091,24 C37.0909091,23.623 36.8923636,23.272 36.5694545,23.0748333 L16.9330909,11.1581667 Z M17.4545455,33.984 L17.4545455,14.016 L33.9076364,24 L17.4545455,33.984 Z"/>
  </g>
</svg>
