<svg xmlns="http://www.w3.org/2000/svg" width="67" height="69" viewBox="0 0 67 69">
  <defs>
    <linearGradient id="icon-comment-a" x1="14.648%" x2="101.556%" y1="14.024%" y2="97.229%">
      <stop offset="0%" stop-color="#369CDC"/>
      <stop offset="100%" stop-color="#AA56D0"/>
    </linearGradient>
    <linearGradient id="icon-comment-b" x1="14.66%" x2="85.34%" y1="14.66%" y2="85.34%">
      <stop offset="0%" stop-color="#369CDC"/>
      <stop offset="100%" stop-color="#AA56D0"/>
    </linearGradient>
  </defs>
  <g fill="none">
    <path fill="url(#icon-comment-a)" d="M60.408,51.342 C64.068,45.906 66,39.579 66,33 C66,14.805 51.195,0 33,0 C14.805,0 0,14.805 0,33 C0,51.195 14.805,66 33,66 C37.902,66 42.582,64.962 46.923,62.913 L64.005,68.916 C64.164,68.973 64.332,69 64.5,69 C64.509,69 64.521,69 64.53,69 C65.361,69.009 66.06,68.34 66.06,67.5 C66.06,67.179 65.958,66.882 65.787,66.636 L60.408,51.342 Z M47.325,59.874 C47.163,59.817 46.998,59.79 46.827,59.79 C46.599,59.79 46.371,59.844 46.161,59.946 C42.081,61.974 37.653,63 33,63 C16.458,63 3,49.542 3,33 C3,16.458 16.458,3 33,3 C49.542,3 63,16.458 63,33 C63,39.216 61.104,45.183 57.516,50.253 C57.234,50.649 57.165,51.159 57.327,51.618 L62.049,65.046 L47.325,59.874 Z"/>
    <path fill="url(#icon-comment-b)" d="M45 27C41.691 27 39 29.691 39 33 39 36.309 41.691 39 45 39 48.309 39 51 36.309 51 33 51 29.691 48.309 27 45 27zM45 36C43.347 36 42 34.653 42 33 42 31.347 43.347 30 45 30 46.653 30 48 31.347 48 33 48 34.653 46.653 36 45 36zM21 27C17.691 27 15 29.691 15 33 15 36.309 17.691 39 21 39 24.309 39 27 36.309 27 33 27 29.691 24.309 27 21 27zM21 36C19.347 36 18 34.653 18 33 18 31.347 19.347 30 21 30 22.653 30 24 31.347 24 33 24 34.653 22.653 36 21 36z"/>
  </g>
</svg>
