<svg xmlns="http://www.w3.org/2000/svg" width="48" height="48" viewBox="0 0 48 48">
  <defs>
    <linearGradient id="icon-music-pause-mini-a" x1="-33.843%" x2="133.84%" y1="16.463%" y2="83.537%">
      <stop offset="0%" stop-color="#4285F4"/>
      <stop offset="100%" stop-color="#AA56D0"/>
    </linearGradient>
  </defs>
  <g fill="url(#icon-music-pause-mini-a)">
    <path d="M20.7272727 13.0909091L14.1818182 13.0909091C13.5796364 13.0909091 13.0909091 13.5796364 13.0909091 14.1818182L13.0909091 33.8181818C13.0909091 34.4203636 13.5796364 34.9090909 14.1818182 34.9090909L20.7272727 34.9090909C21.3294545 34.9090909 21.8181818 34.4203636 21.8181818 33.8181818L21.8181818 14.1818182C21.8181818 13.5796364 21.3294545 13.0909091 20.7272727 13.0909091zM19.6363636 32.7272727L15.2727273 32.7272727 15.2727273 15.2727273 19.6363636 15.2727273 19.6363636 32.7272727zM33.8181818 13.0909091L27.2727273 13.0909091C26.6705455 13.0909091 26.1818182 13.5796364 26.1818182 14.1818182L26.1818182 33.8181818C26.1818182 34.4203636 26.6705455 34.9090909 27.2727273 34.9090909L33.8181818 34.9090909C34.4203636 34.9090909 34.9090909 34.4203636 34.9090909 33.8181818L34.9090909 14.1818182C34.9090909 13.5796364 34.4203636 13.0909091 33.8181818 13.0909091zM32.7272727 32.7272727L28.3636364 32.7272727 28.3636364 15.2727273 32.7272727 15.2727273 32.7272727 32.7272727z"/>
  </g>
</svg>
