<svg xmlns="http://www.w3.org/2000/svg" width="48" height="48" viewBox="0 0 48 48">
  <defs>
    <linearGradient id="icon-music-play-mini-a" x1="-17.287%" x2="62.285%" y1="16.845%" y2="83.155%">
      <stop offset="0%" stop-color="#4285F4"/>
      <stop offset="100%" stop-color="#AA56D0"/>
    </linearGradient>
  </defs>
  <path fill="url(#icon-music-play-mini-a)" d="M16.9330909,11.1581667 C16.5992727,10.9545 16.176,10.948 15.8312727,11.1365 C15.4865455,11.3293333 15.2727273,11.6911667 15.2727273,12.0833333 L15.2727273,35.9166667 C15.2727273,36.3088333 15.4865455,36.6706667 15.8290909,36.8635 C15.9970909,36.9545 16.1803636,37 16.3636364,37 C16.56,37 16.7585455,36.948 16.9330909,36.8418333 L36.5694545,24.9251667 C36.8923636,24.728 37.0909091,24.377 37.0909091,24 C37.0909091,23.623 36.8923636,23.272 36.5694545,23.0748333 L16.9330909,11.1581667 Z M17.4545455,33.984 L17.4545455,14.016 L33.9076364,24 L17.4545455,33.984 Z"/>
</svg>
