<svg xmlns="http://www.w3.org/2000/svg" width="60" height="60" viewBox="0 0 60 60">
  <path fill="#5B5B5B" d="M23,0 C10.3174167,0 0,10.3174167 0,23 C0,28.7059167 2.11025,34.1760833 5.93783333,38.4004167 C5.93783333,38.4004167 5.93783333,38.4004167 5.93783333,38.4023333 C5.93783333,38.4023333 5.93975,38.40425 5.93975,38.40425 L5.93975,38.40425 L5.93975,38.40425 C10.2944167,43.2304167 16.5120833,46 23,46 C29.54925,46 35.8129167,43.1863333 40.1790833,38.2815833 C40.1790833,38.2815833 40.1790833,38.2796667 40.181,38.27775 C43.9338333,34.06875 46,28.6426667 46,23 C46,10.3174167 35.6825833,0 23,0 Z M23,44.0833333 C17.2231667,44.0833333 11.6801667,41.6875 7.70883333,37.4938333 L9.13866667,31.9661667 C9.55075,30.1031667 11.39075,28.75 13.5125,28.75 L18.4,28.75 C19.8796667,28.75 21.0833333,27.5463333 21.0833333,25.9631667 C21.0833333,25.1064167 20.6578333,24.2995 19.9160833,23.7513333 C16.4469167,21.17725 16.1766667,16.1594167 16.1766667,14.6816667 C16.1766667,9.96091667 18.38275,7.66666667 22.9233333,7.66666667 C27.5405833,7.66666667 29.8808333,10.0260833 29.8808333,14.6816667 C29.8808333,17.7080833 28.8841667,21.6775 26.0858333,23.7494167 C25.3421667,24.2995 24.9166667,25.1083333 24.9166667,26.0666667 C24.9166667,27.5463333 26.1203333,28.75 27.6,28.75 L32.8516667,28.75 C34.9734167,28.75 36.8115,30.1031667 37.2255,31.9661667 L38.4215,37.3654167 C34.4348333,41.6415 28.842,44.0833333 23,44.0833333 Z M39.9701667,35.5005 L39.0961667,31.5521667 C38.4828333,28.773 35.9145,26.8333333 32.8516667,26.8333333 L27.6,26.8333333 C27.1764167,26.8333333 26.8333333,26.4883333 26.8333333,25.9650833 C26.8333333,25.6181667 27.1074167,25.3785833 27.22625,25.2904167 C31.4678333,22.149 31.7975,16.376 31.7975,14.6816667 C31.7975,9.00641667 28.5621667,5.75 22.9233333,5.75 C17.33625,5.75 14.26,8.92208333 14.26,14.6816667 C14.26,16.3855833 14.5858333,22.1835 18.77375,25.2904167 C18.8925833,25.3785833 19.1666667,25.6181667 19.1666667,26.0666667 C19.1666667,26.4883333 18.8216667,26.8333333 18.4,26.8333333 L13.5125,26.8333333 C10.4496667,26.8333333 7.88133333,28.773 7.27566667,31.5195833 L6.19466667,35.70175 C3.427,32.0600833 1.91666667,27.6153333 1.91666667,23 C1.91666667,11.3754167 11.3754167,1.91666667 23,1.91666667 C34.6245833,1.91666667 44.0833333,11.3754167 44.0833333,23 C44.0833333,27.5233333 42.6343333,31.8933333 39.9701667,35.5005 Z" transform="translate(7 7)"/>
</svg>
