<svg xmlns="http://www.w3.org/2000/svg" width="66" height="72" viewBox="0 0 66 72">
  <defs>
    <linearGradient id="icon-share-a" x1="29.665%" x2="104.032%" y1="15.915%" y2="84.085%">
      <stop offset="0%" stop-color="#369CDC"/>
      <stop offset="100%" stop-color="#AA56D0"/>
    </linearGradient>
  </defs>
  <path fill="url(#icon-share-a)" d="M12,24 C5.382,24 0,29.382 0,36 C0,42.618 5.382,48 12,48 C15.891,48 19.506,46.098 21.753,42.963 L37.158,51.261 C36.408,53.046 36,54.999 36,57 C36,65.271 42.729,72 51,72 C59.271,72 66,65.271 66,57 C66,48.729 59.271,42 51,42 C45.954,42 41.337,44.52 38.595,48.624 L23.193,40.329 C23.721,38.967 24,37.494 24,36 C24,34.506 23.721,33.033 23.193,31.671 L38.601,23.4 C41.367,27.495 45.978,30 51,30 C59.271,30 66,23.271 66,15 C66,6.729 59.271,0 51,0 C42.729,0 36,6.729 36,15 C36,17.01 36.417,18.969 37.173,20.763 L21.756,29.04 C19.506,25.902 15.891,24 12,24 Z M12,45 C7.038,45 3,40.962 3,36 C3,31.038 7.038,27 12,27 C15.294,27 18.327,28.815 19.926,31.743 C20.628,33.018 21,34.491 21,36 C21,37.509 20.628,38.982 19.923,40.26 C18.327,43.185 15.294,45 12,45 Z M51,45 C57.618,45 63,50.382 63,57 C63,63.618 57.618,69 51,69 C44.382,69 39,63.618 39,57 C39,54.984 39.495,53.031 40.44,51.324 C40.44,51.324 40.44,51.324 40.44,51.324 C40.44,51.324 40.44,51.321 40.44,51.321 L40.443,51.318 C42.516,47.421 46.56,45 51,45 Z M51,3 C57.618,3 63,8.382 63,15 C63,21.618 57.618,27 51,27 C46.635,27 42.636,24.651 40.524,20.862 C40.5,20.793 40.467,20.727 40.431,20.664 C39.495,18.978 39,17.019 39,15 C39,8.382 44.382,3 51,3 Z"/>
</svg>
