<svg xmlns="http://www.w3.org/2000/svg" width="60" height="60" viewBox="0 0 60 60">
  <defs>
    <linearGradient id="icon-special-active-a" x1="11.782%" x2="98.969%" y1="12.521%" y2="99.748%">
      <stop offset="0%" stop-color="#4285F4"/>
      <stop offset="100%" stop-color="#AA56D0"/>
    </linearGradient>
  </defs>
  <path fill="url(#icon-special-active-a)" d="M22.0344014,38.0554819 C14.1935038,38.2095307 6.42259642,40.2321718 0.451435984,44.1634179 C-0.0104990669,44.4655136 -0.138481072,45.0857102 0.163476472,45.5478567 C0.469433453,46.0100032 1.09134601,46.1360431 1.54728191,45.8339474 C7.46245022,41.942714 15.2273585,39.9980976 22.9942664,39.9980976 C30.7691732,39.9980976 38.5340815,41.9447146 44.4472501,45.835948 C44.6152264,45.9479835 44.8051997,46 44.995173,46 C45.3191275,46 45.6370828,45.8419499 45.8310555,45.5498573 C46.133013,45.0877108 46.0070308,44.4675143 45.543096,44.1654185 C39.589933,40.2461762 31.8490214,38.2255358 24.0341202,38.0594831 C24.0761143,35.812771 24.242091,33.620076 24.5860426,31.5494197 C24.7380212,30.5671083 24.9439923,29.5487855 25.2479495,28.2563759 C26.0598354,24.9833384 27.2096737,22.0484082 28.6614696,19.5356117 C29.4633568,18.161176 30.4612165,16.8267531 31.5110689,15.6903929 C32.3029576,15.8764519 33.1148434,15.990488 33.9487262,15.990488 C37.0282932,15.990488 40.1078602,14.678072 42.3975383,12.3893466 C45.4731058,9.31037062 46.7029329,4.97299582 45.6050873,1.06975863 C45.5111005,0.733652093 45.2471376,0.471569022 44.9131846,0.377539217 C41.0997207,-0.696801312 36.6143514,0.56759946 33.5967757,3.58655637 C30.72118,6.46346825 29.4853537,10.4367276 30.2292492,14.1318989 C29.0134201,15.416306 27.8535832,16.9507924 26.9337125,18.5292927 C25.4899155,21.0240835 24.3480761,23.9069973 23.5001953,27.0900062 C22.3183614,24.0510429 20.3006451,20.9340549 17.7789997,18.3752439 C18.4649032,15.1362172 17.393054,11.6391088 14.8714085,9.11430848 C12.2537765,6.49147713 8.35032538,5.39312899 5.03279183,6.3254245 C4.69883879,6.42145493 4.4348759,6.68353801 4.34088912,7.01964454 C3.38702323,10.4147207 4.45687281,14.1879166 7.13049689,16.8627645 C9.11621769,18.8513948 11.7898418,19.9917563 14.469465,19.9917563 C15.1113748,19.9917563 15.7372868,19.905729 16.3532002,19.779689 C19.7487227,23.2187791 22.1743817,27.7222066 22.5883235,31.4153772 C22.2483713,33.5300474 22.0763955,35.7647558 22.0344014,38.0554819 Z M35.0105769,5.0010047 C37.378244,2.63225389 40.7957635,1.53790701 43.8153389,2.16610613 C44.4572487,5.22707636 43.3993974,8.55413092 40.9817373,10.9728976 C38.6160699,13.3416484 35.2005502,14.4399965 32.1769753,13.8097968 C31.5350655,10.7488266 32.5929168,7.421772 35.0105769,5.0010047 Z M8.54229839,15.4483161 C6.52858152,13.4316769 5.63270748,10.6728025 6.13263719,8.11999331 C8.63828489,7.62783732 11.4838848,8.55813219 13.4556076,10.5307574 C15.4713242,12.5473967 16.3651985,15.3062711 15.8652688,17.8590803 C15.4133323,17.9451075 14.9453981,17.9911221 14.469465,17.9911221 C12.3177675,17.9911221 10.1580712,17.0648285 8.54229839,15.4483161 Z" transform="translate(7 7)"/>
</svg>
