<svg xmlns="http://www.w3.org/2000/svg" width="60" height="60" viewBox="0 0 60 60">
  <path fill="#5B5B5B" d="M34.3945833,15.47325 C33.4975833,6.73708333 26.128,0 17.25,0 C7.7395,0 0,7.7395 0,17.25 C0,23.0153333 2.82325,28.30725 7.58233333,31.5195833 C7.32358333,33.3845 6.13141667,35.0098333 4.38341667,35.8359167 C4.048,35.995 3.83333333,36.3323333 3.83333333,36.70225 C3.83333333,37.0721667 4.04416667,37.4095 4.37766667,37.5685833 C5.43758333,38.0765 6.54541667,38.3333333 7.66666667,38.3333333 C10.534,38.3333333 13.11,36.7635833 14.4305833,34.2738333 C16.3319167,34.5843333 18.3405833,34.5575 20.3684167,34.1895 C22.3828333,38.74925 26.6876667,41.8025 31.6825,42.1206667 C33.03375,44.4954167 35.5829167,46 38.3333333,46 C39.4545833,46 40.5624167,45.7431667 41.6223333,45.23525 C41.9558333,45.0761667 42.1666667,44.7388333 42.1666667,44.3689167 C42.1666667,44.0009167 41.9539167,43.6635833 41.6204167,43.5045 C40.3439167,42.895 39.3549167,41.8676667 38.824,40.6275833 C43.21125,38.3295 46,33.75825 46,28.75 C46,22.0416667 40.9668333,16.37025 34.3945833,15.47325 Z M14.0740833,32.2594167 C13.6198333,32.1674167 13.1655833,32.4089167 12.98925,32.8363333 C12.02325,35.2149167 9.56033333,36.6945833 7.01116667,36.3764167 C8.49275,35.0596667 9.42041667,33.1966667 9.53925,31.1305 C9.54308333,31.0979167 9.545,31.0634167 9.545,31.0308333 C9.545,31.0308333 9.545,31.0289167 9.545,31.027 C9.545,31.027 9.545,31.027 9.545,31.027 C9.545,31.027 9.545,31.027 9.545,31.0250833 C9.545,31.0250833 9.545,31.0250833 9.545,31.0250833 C9.545,31.0250833 9.545,31.0250833 9.545,31.0250833 C9.545,31.0250833 9.545,31.0250833 9.545,31.0250833 C9.545,31.0250833 9.545,31.0250833 9.545,31.0231667 L9.545,31.0231667 C9.545,31.02125 9.545,31.02125 9.545,31.02125 C9.545,31.02125 9.545,31.0193333 9.545,31.0193333 C9.545,31.0193333 9.545,31.0193333 9.545,31.0193333 C9.545,31.0193333 9.545,31.0193333 9.545,31.0174167 L9.545,31.0174167 C9.545,31.0155 9.545,31.0155 9.545,31.0155 C9.545,31.0155 9.545,31.0135833 9.545,31.0135833 C9.545,31.0135833 9.545,31.0135833 9.545,31.0135833 C9.545,31.0116667 9.545,31.0116667 9.545,31.00975 L9.545,31.0078333 C9.545,31.0078333 9.545,31.0059167 9.545,31.0059167 C9.54308333,30.9235 9.52966667,30.8449167 9.50666667,30.7701667 C9.4415,30.54975 9.29775,30.3561667 9.0965,30.2315833 C4.6,27.3968333 1.91666667,22.5495833 1.91666667,17.25 C1.91666667,8.79558333 8.79558333,1.91666667 17.25,1.91666667 C25.0316667,1.91666667 31.51,7.73566667 32.4568333,15.3390833 C25.1179167,15.4080833 19.1666667,21.3938333 19.1666667,28.75 C19.1666667,29.9785833 19.3391667,31.1899167 19.6726667,32.3629167 C17.7425833,32.6676667 15.8431667,32.63125 14.0740833,32.2594167 Z M37.2561667,39.2590833 C36.8249167,39.45075 36.5968333,39.9260833 36.7175833,40.3803333 C37.0951667,41.8044167 37.8905833,43.0713333 38.99075,44.0430833 C36.5431667,44.3459167 34.1971667,43.0176667 33.1449167,40.7809167 C32.9896667,40.45125 32.6619167,40.2385 32.2996667,40.2308333 C27.58275,40.1273333 23.4734167,37.2044167 21.827,32.7788333 C21.3325,31.4831667 21.0833333,30.1280833 21.0833333,28.75 C21.0833333,22.40775 26.2410833,17.25 32.5833333,17.25 C32.8708333,17.25 33.1755833,17.26725 33.4515833,17.2864167 C39.4124167,17.7291667 44.0833333,22.76425 44.0833333,28.75 C44.0833333,33.2963333 41.4038333,37.421 37.2561667,39.2590833 Z" transform="translate(7 7)"/>
</svg>
