<svg xmlns="http://www.w3.org/2000/svg" width="60" height="60" viewBox="0 0 60 60">
  <path fill="#5B5B5B" d="M44.9111201,0.378059706 C41.1033302,-0.698212964 36.6135779,0.570108361 33.5957444,3.58887315 C30.719903,6.46560196 29.4839712,10.440609 30.2259303,14.1335446 C29.0119972,15.4158695 27.8520612,16.9502582 26.9281122,18.5306586 C25.4881916,21.0252906 24.3442547,23.9060204 23.4963015,27.0928278 C22.3163666,24.0520574 20.296478,20.9352678 17.7746172,18.3766196 C18.4605793,15.1357985 17.3906384,11.6389126 14.8667776,9.11827401 C12.2469221,6.49560957 8.34313748,5.39933183 5.0293203,6.3295675 C4.69333883,6.42359132 4.43135328,6.68765822 4.33735847,7.02174286 C3.38141121,10.4186034 4.45135218,14.1915593 7.12520467,16.8642364 C9.113095,18.8527402 11.7889474,19.9930291 14.4687995,19.9930291 C15.1107641,19.9930291 15.7387295,19.9070073 16.3546955,19.7789749 C19.7485083,23.2198466 22.1743744,27.7209869 22.5883516,31.415923 C22.2483704,33.5344598 22.07438,35.7690259 22.0343822,38.0576057 C14.1928148,38.2116447 6.42124351,40.2341571 0.449572949,44.1631525 C-0.0104016751,44.4672295 -0.138394614,45.0873867 0.163588726,45.5475032 C0.465572067,46.0096203 1.08753775,46.1396532 1.54751238,45.8355762 C13.3748599,38.0516042 32.6177983,38.0516042 44.4451458,45.8355762 C44.6151364,45.9476046 44.805126,45.9996178 44.9951155,45.9996178 C45.3210975,45.9996178 45.63908,45.8415777 45.8310694,45.5475032 C46.1350526,45.0873867 46.0070597,44.4672295 45.5450851,44.1631525 C39.5914136,40.2461602 31.8498407,38.2256483 24.0322719,38.0596062 C24.0742696,35.817038 24.2422604,33.6244826 24.5842415,31.549957 C24.738233,30.5617066 24.9502213,29.50944 25.2482049,28.2571228 C26.06216,24.9802926 27.2100966,22.0475496 28.6600166,19.5369135 C29.4639723,18.1605648 30.4619172,16.8282273 31.5098594,15.6919394 C32.2998158,15.8759861 33.1137709,15.9920154 33.9477249,15.9920154 C37.0295549,15.9920154 40.1073851,14.679683 42.3952589,12.3911032 C45.4730891,9.31232317 46.7030213,4.97322387 45.6050818,1.07023507 C45.5090871,0.736150427 45.2471016,0.472083526 44.9111201,0.378059706 Z M8.53912667,15.4498781 C6.52323788,13.4353677 5.6292872,10.6746683 6.12925961,8.12202161 C8.64712071,7.63389795 11.4829643,8.56013261 13.4548555,10.5326323 C15.4707443,12.5471427 16.364695,15.3078421 15.8647225,17.8584883 C13.3448615,18.346612 10.5110179,17.4203773 8.53912667,15.4498781 Z M40.9813369,10.9767448 C38.6134675,13.3433444 35.1916563,14.4356211 32.1758227,13.811463 C31.5338581,10.7506876 32.5917997,7.42384473 35.0096664,5.00323148 C37.3775357,2.63663191 40.7993469,1.54235468 43.8151806,2.16851331 C44.4571452,5.22928875 43.3992035,8.55613159 40.9813369,10.9767448 Z" transform="translate(7 7)"/>
</svg>
